<?xml version="1.0" encoding="UTF-8"?>
<svg id="Layer_2" data-name="Layer 2" xmlns="http://www.w3.org/2000/svg" viewBox="0 0 5000 5000">
  <defs>
    <style>
      .cls-1 {
        fill: #000;
        stroke-width: 0px;
      }

      .cls-2 {
        fill: #39b54a;
        stroke: #006837;
        stroke-width: 5.61px;
      }

      .cls-2, .cls-3, .cls-4, .cls-5 {
        stroke-miterlimit: 10;
      }

      .cls-3 {
        fill: #fff;
      }

      .cls-3, .cls-4 {
        stroke: #000;
      }

      .cls-4 {
        stroke-width: 150px;
      }

      .cls-4, .cls-5 {
        fill: none;
      }

      .cls-5 {
        stroke: #fff;
        stroke-dasharray: 0 0 200.9 200.9;
        stroke-width: 20px;
      }
    </style>
  </defs>
  <g id="Layer_1-2" data-name="Layer 1">
    <circle class="cls-3" cx="2500" cy="2500" r="65.22"/>
    <path class="cls-4" d="M2500,2500c93.08,244.21-.54,313.72,88.77,581.94,31.53,94.7,156.97,471.39,481.52,591.24,426.22,157.39,836.97-233.95,859.43-256,54.85-53.86,359.72-353.17,253.71-619.81-74.83-188.21-325.26-286.92-521.9-276.19-267.87,14.62-376.78,229.07-515.81,170.67-122.62-51.51-157.98-268.77-142.48-414.48,32.58-306.22,320.64-586.46,631.62-645.71,479.53-91.38,959.55,352.98,1099.92,786.27,2.6,8.04,4.28,13.66,5.6,17.92,176.68,571.36,131.91,1409.23-371.81,1859.05-416.44,371.88-672.48,55.19-2358.86,304.76-715.06,105.83-1222.66,244.7-1505.52-48.76-127.8-132.59-205.93-346.79-134.1-457.14,89.51-137.5,352.42-24.84,864.76-57.52,227.45-14.51,845.97-53.97,914.29-301.71,41.13-149.16-119.45-365.59-310.86-452.57-310.58-141.13-525.35,138.97-859.43,27.43-288.09-96.19-526.38-437.54-466.29-662.86,82.47-309.22,734.13-230.72,804.57-512,72.48-289.4-586.37-496.24-731.43-1174.86-28.03-131.11-81.53-381.4,52.57-541.33,167.17-199.37,484.31-72.16,1091.05-67.05,556.58,4.69,504.69-59.41,1493.33-97.52,916.14-35.32,1104.96,14.16,1261.71,152.38,170.05,149.94,366.08,442.5,298.67,719.24-13.91,57.09-36.28,148.93-115.05,204.57-143.24,101.19-347.73-5.79-845.71-205.71-89.77-36.04-388.75-155.74-667.43-251.43-449.05-154.19-673.57-231.28-886.86-205.71-294.49,35.3-695.2,217.3-739.81,488.76-32.13,195.53,146.69,392.92,505.9,786.29,267.09,292.48,381.97,337.67,465.89,557.87Z"/>
    <path class="cls-5" d="M2500,2500c93.08,244.21-.54,313.72,88.77,581.94,31.53,94.7,156.97,471.39,481.52,591.24,426.22,157.39,836.97-233.95,859.43-256,54.85-53.86,359.72-353.17,253.71-619.81-74.83-188.21-325.26-286.92-521.9-276.19-267.87,14.62-376.78,229.07-515.81,170.67-122.62-51.51-157.98-268.77-142.48-414.48,32.58-306.22,320.64-586.46,631.62-645.71,479.53-91.38,959.55,352.98,1099.92,786.27,2.6,8.04,4.28,13.66,5.6,17.92,176.68,571.36,131.91,1409.23-371.81,1859.05-416.44,371.88-672.48,55.19-2358.86,304.76-715.06,105.83-1222.66,244.7-1505.52-48.76-127.8-132.59-205.93-346.79-134.1-457.14,89.51-137.5,352.42-24.84,864.76-57.52,227.45-14.51,845.97-53.97,914.29-301.71,41.13-149.16-119.45-365.59-310.86-452.57-310.58-141.13-525.35,138.97-859.43,27.43-288.09-96.19-526.38-437.54-466.29-662.86,82.47-309.22,734.13-230.72,804.57-512,72.48-289.4-586.37-496.24-731.43-1174.86-28.03-131.11-81.53-381.4,52.57-541.33,167.17-199.37,484.31-72.16,1091.05-67.05,556.58,4.69,504.69-59.41,1493.33-97.52,916.14-35.32,1104.96,14.16,1261.71,152.38,170.05,149.94,366.08,442.5,298.67,719.24-13.91,57.09-36.28,148.93-115.05,204.57-143.24,101.19-347.73-5.79-845.71-205.71-89.77-36.04-388.75-155.74-667.43-251.43-449.05-154.19-673.57-231.28-886.86-205.71-294.49,35.3-695.2,217.3-739.81,488.76-32.13,195.53,146.69,392.92,505.9,786.29,267.09,292.48,381.97,337.67,465.89,557.87Z"/>
    <path class="cls-1" d="M4990.66,9.34v4981.33H9.34V9.34h4981.33M5000,0H0v5000h5000V0h0Z"/>
    <circle class="cls-2" cx="2500" cy="2500" r="18.17"/>
    <circle class="cls-2" cx="1780.89" cy="840.7" r="18.17"/>
    <circle class="cls-2" cx="4770.61" cy="1176.7" r="18.17"/>
    <circle class="cls-2" cx="2987.75" cy="260.92" r="18.17"/>
    <circle class="cls-2" cx="638.3" cy="418.32" r="18.17"/>
    <circle class="cls-2" cx="1324.01" cy="2107.46" r="18.17"/>
    <circle class="cls-2" cx="2153.73" cy="3654.89" r="18.17"/>
    <circle class="cls-2" cx="360.89" cy="4114.32" r="18.17"/>
    <circle class="cls-2" cx="2788.2" cy="4518.89" r="18.17"/>
    <circle class="cls-2" cx="4758.49" cy="3636.72" r="18.17"/>
    <circle class="cls-2" cx="3188.2" cy="1885.87" r="18.17"/>
  </g>
</svg>